<svg width="512" height="512" viewBox="0 0 512 512" fill="none" xmlns="http://www.w3.org/2000/svg">
<g clip-path="url(#clip0_1_2)">
<rect width="512" height="512" fill="white"/>
<path d="M123.61 233.463V242H115.073V233.463H123.61ZM123.61 224.927V233.463H115.073V224.927H123.61ZM123.61 216.39V224.927H115.073V216.39H123.61ZM123.61 207.854V216.39H115.073V207.854H123.61ZM123.61 199.317V207.854H115.073V199.317H123.61ZM123.61 190.78V199.317H115.073V190.78H123.61ZM123.61 182.244V190.78H115.073V182.244H123.61ZM123.61 173.707V182.244H115.073V173.707H123.61ZM123.61 165.171V173.707H115.073V165.171H123.61ZM123.61 156.634V165.171H115.073V156.634H123.61ZM123.61 148.098V156.634H115.073V148.098H123.61ZM123.61 139.561V148.098H115.073V139.561H123.61ZM123.61 131.024V139.561H115.073V131.024H123.61ZM123.61 122.488V131.024H115.073V122.488H123.61ZM123.61 113.951V122.488H115.073V113.951H123.61ZM132.146 113.951V122.488H123.61V113.951H132.146ZM132.146 122.488V131.024H123.61V122.488H132.146ZM132.146 131.024V139.561H123.61V131.024H132.146ZM132.146 139.561V148.098H123.61V139.561H132.146ZM132.146 148.098V156.634H123.61V148.098H132.146ZM132.146 156.634V165.171H123.61V156.634H132.146ZM132.146 165.171V173.707H123.61V165.171H132.146ZM140.683 173.707V182.244H132.146V173.707H140.683ZM140.683 182.244V190.78H132.146V182.244H140.683ZM140.683 190.78V199.317H132.146V190.78H140.683ZM140.683 199.317V207.854H132.146V199.317H140.683ZM140.683 207.854V216.39H132.146V207.854H140.683ZM140.683 216.39V224.927H132.146V216.39H140.683ZM140.683 224.927V233.463H132.146V224.927H140.683ZM140.683 233.463V242H132.146V233.463H140.683ZM149.22 233.463V242H140.683V233.463H149.22ZM157.756 233.463V242H149.22V233.463H157.756ZM157.756 199.317V207.854H149.22V199.317H157.756ZM157.756 190.78V199.317H149.22V190.78H157.756ZM157.756 182.244V190.78H149.22V182.244H157.756ZM157.756 173.707V182.244H149.22V173.707H157.756ZM149.22 173.707V182.244H140.683V173.707H149.22ZM149.22 165.171V173.707H140.683V165.171H149.22ZM149.22 182.244V190.78H140.683V182.244H149.22ZM149.22 190.78V199.317H140.683V190.78H149.22ZM149.22 199.317V207.854H140.683V199.317H149.22ZM149.22 207.854V216.39H140.683V207.854H149.22ZM149.22 216.39V224.927H140.683V216.39H149.22ZM149.22 224.927V233.463H140.683V224.927H149.22ZM132.146 233.463V242H123.61V233.463H132.146ZM132.146 224.927V233.463H123.61V224.927H132.146ZM132.146 216.39V224.927H123.61V216.39H132.146ZM132.146 207.854V216.39H123.61V207.854H132.146ZM132.146 199.317V207.854H123.61V199.317H132.146ZM132.146 190.78V199.317H123.61V190.78H132.146ZM132.146 182.244V190.78H123.61V182.244H132.146ZM132.146 173.707V182.244H123.61V173.707H132.146ZM123.61 28.5854V37.122H115.073V28.5854H123.61ZM123.61 37.122V45.6585H115.073V37.122H123.61ZM123.61 45.6585V54.1951H115.073V45.6585H123.61ZM123.61 54.1951V62.7317H115.073V54.1951H123.61ZM123.61 62.7317V71.2683H115.073V62.7317H123.61ZM123.61 71.2683V79.8049H115.073V71.2683H123.61ZM123.61 79.8049V88.3415H115.073V79.8049H123.61ZM123.61 88.3415V96.8781H115.073V88.3415H123.61ZM123.61 96.8781V105.415H115.073V96.8781H123.61ZM123.61 105.415V113.951H115.073V105.415H123.61ZM149.22 28.5854V37.122H140.683V28.5854H149.22ZM149.22 37.122V45.6585H140.683V37.122H149.22ZM149.22 45.6585V54.1951H140.683V45.6585H149.22ZM149.22 54.1951V62.7317H140.683V54.1951H149.22ZM149.22 62.7317V71.2683H140.683V62.7317H149.22ZM149.22 71.2683V79.8049H140.683V71.2683H149.22ZM149.22 88.3415V96.8781H140.683V88.3415H149.22ZM149.22 96.8781V105.415H140.683V96.8781H149.22ZM149.22 105.415V113.951H140.683V105.415H149.22ZM149.22 113.951V122.488H140.683V113.951H149.22ZM149.22 122.488V131.024H140.683V122.488H149.22ZM149.22 131.024V139.561H140.683V131.024H149.22ZM149.22 139.561V148.098H140.683V139.561H149.22ZM157.756 148.098V156.634H149.22V148.098H157.756ZM157.756 156.634V165.171H149.22V156.634H157.756ZM157.756 165.171V173.707H149.22V165.171H157.756ZM157.756 139.561V148.098H149.22V139.561H157.756ZM157.756 131.024V139.561H149.22V131.024H157.756ZM157.756 122.488V131.024H149.22V122.488H157.756ZM157.756 113.951V122.488H149.22V113.951H157.756ZM157.756 105.415V113.951H149.22V105.415H157.756ZM157.756 96.8781V105.415H149.22V96.8781H157.756ZM157.756 88.3415V96.8781H149.22V88.3415H157.756ZM157.756 79.8049V88.3415H149.22V79.8049H157.756ZM157.756 71.2683V79.8049H149.22V71.2683H157.756ZM157.756 62.7317V71.2683H149.22V62.7317H157.756ZM149.22 79.8049V88.3415H140.683V79.8049H149.22ZM157.756 54.1951V62.7317H149.22V54.1951H157.756ZM157.756 45.6585V54.1951H149.22V45.6585H157.756ZM157.756 37.122V45.6585H149.22V37.122H157.756ZM157.756 28.5854V37.122H149.22V28.5854H157.756ZM140.683 28.5854V37.122H132.146V28.5854H140.683ZM132.146 28.5854V37.122H123.61V28.5854H132.146ZM132.146 37.122V45.6585H123.61V37.122H132.146ZM140.683 37.122V45.6585H132.146V37.122H140.683ZM140.683 45.6585V54.1951H132.146V45.6585H140.683ZM140.683 54.1951V62.7317H132.146V54.1951H140.683ZM140.683 62.7317V71.2683H132.146V62.7317H140.683ZM140.683 71.2683V79.8049H132.146V71.2683H140.683ZM140.683 79.8049V88.3415H132.146V79.8049H140.683ZM140.683 88.3415V96.8781H132.146V88.3415H140.683ZM132.146 96.8781V105.415H123.61V96.8781H132.146ZM132.146 105.415V113.951H123.61V105.415H132.146ZM132.146 88.3415V96.8781H123.61V88.3415H132.146ZM132.146 79.8049V88.3415H123.61V79.8049H132.146ZM132.146 71.2683V79.8049H123.61V71.2683H132.146ZM132.146 62.7317V71.2683H123.61V62.7317H132.146ZM132.146 54.1951V62.7317H123.61V54.1951H132.146ZM132.146 45.6585V54.1951H123.61V45.6585H132.146ZM140.683 96.8781V105.415H132.146V96.8781H140.683ZM140.683 105.415V113.951H132.146V105.415H140.683ZM140.683 113.951V122.488H132.146V113.951H140.683ZM140.683 122.488V131.024H132.146V122.488H140.683ZM140.683 131.024V139.561H132.146V131.024H140.683ZM140.683 139.561V148.098H132.146V139.561H140.683ZM140.683 148.098V156.634H132.146V148.098H140.683ZM140.683 156.634V165.171H132.146V156.634H140.683ZM140.683 165.171V173.707H132.146V165.171H140.683ZM149.22 156.634V165.171H140.683V156.634H149.22ZM149.22 148.098V156.634H140.683V148.098H149.22ZM166.293 148.098V156.634H157.756V148.098H166.293ZM174.829 148.098V156.634H166.293V148.098H174.829ZM174.829 156.634V165.171H166.293V156.634H174.829ZM166.293 156.634V165.171H157.756V156.634H166.293ZM166.293 131.024V139.561H157.756V131.024H166.293ZM174.829 131.024V139.561H166.293V131.024H174.829ZM166.293 165.171V173.707H157.756V165.171H166.293ZM174.829 165.171V173.707H166.293V165.171H174.829ZM174.829 139.561V148.098H166.293V139.561H174.829ZM166.293 139.561V148.098H157.756V139.561H166.293ZM166.293 28.5854V37.122H157.756V28.5854H166.293ZM174.829 28.5854V37.122H166.293V28.5854H174.829ZM174.829 37.122V45.6585H166.293V37.122H174.829ZM166.293 37.122V45.6585H157.756V37.122H166.293ZM166.293 45.6585V54.1951H157.756V45.6585H166.293ZM174.829 45.6585V54.1951H166.293V45.6585H174.829ZM174.829 54.1951V62.7317H166.293V54.1951H174.829ZM166.293 54.1951V62.7317H157.756V54.1951H166.293ZM166.293 62.7317V71.2683H157.756V62.7317H166.293ZM174.829 62.7317V71.2683H166.293V62.7317H174.829ZM183.366 131.024V139.561H174.829V131.024H183.366ZM191.902 131.024V139.561H183.366V131.024H191.902ZM200.439 131.024V139.561H191.902V131.024H200.439ZM208.976 122.488V131.024H200.439V122.488H208.976ZM217.512 113.951V122.488H208.976V113.951H217.512ZM217.512 105.415V113.951H208.976V105.415H217.512ZM217.512 79.8049V88.3415H208.976V79.8049H217.512ZM208.976 71.2683V79.8049H200.439V71.2683H208.976ZM200.439 62.7317V71.2683H191.902V62.7317H200.439ZM191.902 62.7317V71.2683H183.366V62.7317H191.902ZM183.366 62.7317V71.2683H174.829V62.7317H183.366ZM183.366 28.5854V37.122H174.829V28.5854H183.366ZM191.902 28.5854V37.122H183.366V28.5854H191.902ZM200.439 28.5854V37.122H191.902V28.5854H200.439ZM208.976 28.5854V37.122H200.439V28.5854H208.976ZM208.976 37.122V45.6585H200.439V37.122H208.976ZM208.976 45.6585V54.1951H200.439V45.6585H208.976ZM208.976 54.1951V62.7317H200.439V54.1951H208.976ZM200.439 54.1951V62.7317H191.902V54.1951H200.439ZM200.439 45.6585V54.1951H191.902V45.6585H200.439ZM191.902 45.6585V54.1951H183.366V45.6585H191.902ZM183.366 45.6585V54.1951H174.829V45.6585H183.366ZM183.366 37.122V45.6585H174.829V37.122H183.366ZM191.902 37.122V45.6585H183.366V37.122H191.902ZM200.439 37.122V45.6585H191.902V37.122H200.439ZM183.366 54.1951V62.7317H174.829V54.1951H183.366ZM191.902 54.1951V62.7317H183.366V54.1951H191.902ZM208.976 62.7317V71.2683H200.439V62.7317H208.976ZM217.512 71.2683V79.8049H208.976V71.2683H217.512ZM217.512 62.7317V71.2683H208.976V62.7317H217.512ZM217.512 54.1951V62.7317H208.976V54.1951H217.512ZM217.512 45.6585V54.1951H208.976V45.6585H217.512ZM217.512 37.122V45.6585H208.976V37.122H217.512ZM217.512 28.5854V37.122H208.976V28.5854H217.512ZM217.512 122.488V131.024H208.976V122.488H217.512ZM217.512 131.024V139.561H208.976V131.024H217.512ZM217.512 139.561V148.098H208.976V139.561H217.512ZM217.512 148.098V156.634H208.976V148.098H217.512ZM208.976 148.098V156.634H200.439V148.098H208.976ZM200.439 148.098V156.634H191.902V148.098H200.439ZM191.902 148.098V156.634H183.366V148.098H191.902ZM183.366 148.098V156.634H174.829V148.098H183.366ZM183.366 139.561V148.098H174.829V139.561H183.366ZM191.902 139.561V148.098H183.366V139.561H191.902ZM200.439 139.561V148.098H191.902V139.561H200.439ZM208.976 139.561V148.098H200.439V139.561H208.976ZM208.976 131.024V139.561H200.439V131.024H208.976ZM183.366 156.634V165.171H174.829V156.634H183.366ZM191.902 156.634V165.171H183.366V156.634H191.902ZM200.439 156.634V165.171H191.902V156.634H200.439ZM208.976 156.634V165.171H200.439V156.634H208.976ZM217.512 156.634V165.171H208.976V156.634H217.512ZM217.512 165.171V173.707H208.976V165.171H217.512ZM208.976 165.171V173.707H200.439V165.171H208.976ZM200.439 165.171V173.707H191.902V165.171H200.439ZM191.902 165.171V173.707H183.366V165.171H191.902ZM183.366 165.171V173.707H174.829V165.171H183.366ZM226.049 37.122V45.6585H217.512V37.122H226.049ZM234.585 37.122V45.6585H226.049V37.122H234.585ZM234.585 45.6585V54.1951H226.049V45.6585H234.585ZM243.122 45.6585V54.1951H234.585V45.6585H243.122ZM243.122 54.1951V62.7317H234.585V54.1951H243.122ZM243.122 62.7317V71.2683H234.585V62.7317H243.122ZM251.659 62.7317V71.2683H243.122V62.7317H251.659ZM251.659 71.2683V79.8049H243.122V71.2683H251.659ZM251.659 79.8049V88.3415H243.122V79.8049H251.659ZM251.659 105.415V113.951H243.122V105.415H251.659ZM251.659 113.951V122.488H243.122V113.951H251.659ZM251.659 122.488V131.024H243.122V122.488H251.659ZM251.659 131.024V139.561H243.122V131.024H251.659ZM243.122 139.561V148.098H234.585V139.561H243.122ZM234.585 148.098V156.634H226.049V148.098H234.585ZM226.049 156.634V165.171H217.512V156.634H226.049ZM234.585 156.634V165.171H226.049V156.634H234.585ZM226.049 165.171V173.707H217.512V165.171H226.049ZM226.049 45.6585V54.1951H217.512V45.6585H226.049ZM226.049 54.1951V62.7317H217.512V54.1951H226.049ZM226.049 62.7317V71.2683H217.512V62.7317H226.049ZM226.049 71.2683V79.8049H217.512V71.2683H226.049ZM226.049 79.8049V88.3415H217.512V79.8049H226.049ZM226.049 105.415V113.951H217.512V105.415H226.049ZM226.049 113.951V122.488H217.512V113.951H226.049ZM226.049 122.488V131.024H217.512V122.488H226.049ZM226.049 131.024V139.561H217.512V131.024H226.049ZM226.049 139.561V148.098H217.512V139.561H226.049ZM226.049 148.098V156.634H217.512V148.098H226.049ZM234.585 139.561V148.098H226.049V139.561H234.585ZM234.585 131.024V139.561H226.049V131.024H234.585ZM234.585 122.488V131.024H226.049V122.488H234.585ZM234.585 113.951V122.488H226.049V113.951H234.585ZM234.585 105.415V113.951H226.049V105.415H234.585ZM234.585 79.8049V88.3415H226.049V79.8049H234.585ZM234.585 71.2683V79.8049H226.049V71.2683H234.585ZM234.585 62.7317V71.2683H226.049V62.7317H234.585ZM234.585 54.1951V62.7317H226.049V54.1951H234.585ZM243.122 71.2683V79.8049H234.585V71.2683H243.122ZM243.122 79.8049V88.3415H234.585V79.8049H243.122ZM243.122 105.415V113.951H234.585V105.415H243.122ZM243.122 113.951V122.488H234.585V113.951H243.122ZM243.122 122.488V131.024H234.585V122.488H243.122ZM243.122 131.024V139.561H234.585V131.024H243.122ZM157.756 216.39V224.927H149.22V216.39H157.756ZM157.756 224.927V233.463H149.22V224.927H157.756ZM157.756 207.854V216.39H149.22V207.854H157.756ZM217.512 88.3415V96.8781H208.976V88.3415H217.512ZM226.049 88.3415V96.8781H217.512V88.3415H226.049ZM234.585 88.3415V96.8781H226.049V88.3415H234.585ZM243.122 88.3415V96.8781H234.585V88.3415H243.122ZM251.659 88.3415V96.8781H243.122V88.3415H251.659ZM251.659 96.8781V105.415H243.122V96.8781H251.659ZM243.122 96.8781V105.415H234.585V96.8781H243.122ZM234.585 96.8781V105.415H226.049V96.8781H234.585ZM226.049 96.8781V105.415H217.512V96.8781H226.049ZM217.512 96.8781V105.415H208.976V96.8781H217.512ZM294.508 233.463V242H285.972V233.463H294.508ZM294.508 224.927V233.463H285.972V224.927H294.508ZM294.508 216.39V224.927H285.972V216.39H294.508ZM294.508 207.854V216.39H285.972V207.854H294.508ZM294.508 199.317V207.854H285.972V199.317H294.508ZM294.508 190.78V199.317H285.972V190.78H294.508ZM294.508 182.244V190.78H285.972V182.244H294.508ZM294.508 173.707V182.244H285.972V173.707H294.508ZM294.508 165.171V173.707H285.972V165.171H294.508ZM294.508 156.634V165.171H285.972V156.634H294.508ZM294.508 148.098V156.634H285.972V148.098H294.508ZM294.508 139.561V148.098H285.972V139.561H294.508ZM294.508 131.024V139.561H285.972V131.024H294.508ZM294.508 122.488V131.024H285.972V122.488H294.508ZM294.508 113.951V122.488H285.972V113.951H294.508ZM303.045 113.951V122.488H294.508V113.951H303.045ZM303.045 122.488V131.024H294.508V122.488H303.045ZM303.045 131.024V139.561H294.508V131.024H303.045ZM303.045 139.561V148.098H294.508V139.561H303.045ZM303.045 148.098V156.634H294.508V148.098H303.045ZM303.045 156.634V165.171H294.508V156.634H303.045ZM303.045 165.171V173.707H294.508V165.171H303.045ZM311.581 173.707V182.244H303.045V173.707H311.581ZM311.581 182.244V190.78H303.045V182.244H311.581ZM311.581 190.78V199.317H303.045V190.78H311.581ZM311.581 199.317V207.854H303.045V199.317H311.581ZM311.581 207.854V216.39H303.045V207.854H311.581ZM311.581 216.39V224.927H303.045V216.39H311.581ZM311.581 224.927V233.463H303.045V224.927H311.581ZM311.581 233.463V242H303.045V233.463H311.581ZM320.118 233.463V242H311.581V233.463H320.118ZM328.655 233.463V242H320.118V233.463H328.655ZM328.655 224.927V233.463H320.118V224.927H328.655ZM328.655 216.39V224.927H320.118V216.39H328.655ZM328.655 207.854V216.39H320.118V207.854H328.655ZM328.655 199.317V207.854H320.118V199.317H328.655ZM328.655 190.78V199.317H320.118V190.78H328.655ZM328.655 182.244V190.78H320.118V182.244H328.655ZM328.655 173.707V182.244H320.118V173.707H328.655ZM320.118 173.707V182.244H311.581V173.707H320.118ZM320.118 165.171V173.707H311.581V165.171H320.118ZM320.118 182.244V190.78H311.581V182.244H320.118ZM320.118 190.78V199.317H311.581V190.78H320.118ZM320.118 199.317V207.854H311.581V199.317H320.118ZM320.118 207.854V216.39H311.581V207.854H320.118ZM320.118 216.39V224.927H311.581V216.39H320.118ZM320.118 224.927V233.463H311.581V224.927H320.118ZM303.045 233.463V242H294.508V233.463H303.045ZM303.045 224.927V233.463H294.508V224.927H303.045ZM303.045 216.39V224.927H294.508V216.39H303.045ZM303.045 207.854V216.39H294.508V207.854H303.045ZM303.045 199.317V207.854H294.508V199.317H303.045ZM303.045 190.78V199.317H294.508V190.78H303.045ZM303.045 182.244V190.78H294.508V182.244H303.045ZM303.045 173.707V182.244H294.508V173.707H303.045ZM294.508 28.5854V37.122H285.972V28.5854H294.508ZM294.508 37.122V45.6585H285.972V37.122H294.508ZM294.508 45.6585V54.1951H285.972V45.6585H294.508ZM294.508 54.1951V62.7317H285.972V54.1951H294.508ZM294.508 62.7317V71.2683H285.972V62.7317H294.508ZM294.508 71.2683V79.8049H285.972V71.2683H294.508ZM294.508 79.8049V88.3415H285.972V79.8049H294.508ZM294.508 88.3415V96.8781H285.972V88.3415H294.508ZM294.508 96.8781V105.415H285.972V96.8781H294.508ZM294.508 105.415V113.951H285.972V105.415H294.508ZM320.118 28.5854V37.122H311.581V28.5854H320.118ZM320.118 37.122V45.6585H311.581V37.122H320.118ZM320.118 45.6585V54.1951H311.581V45.6585H320.118ZM320.118 54.1951V62.7317H311.581V54.1951H320.118ZM320.118 62.7317V71.2683H311.581V62.7317H320.118ZM320.118 71.2683V79.8049H311.581V71.2683H320.118ZM320.118 88.3415V96.8781H311.581V88.3415H320.118ZM320.118 96.8781V105.415H311.581V96.8781H320.118ZM320.118 105.415V113.951H311.581V105.415H320.118ZM320.118 113.951V122.488H311.581V113.951H320.118ZM320.118 122.488V131.024H311.581V122.488H320.118ZM320.118 131.024V139.561H311.581V131.024H320.118ZM320.118 139.561V148.098H311.581V139.561H320.118ZM328.655 148.098V156.634H320.118V148.098H328.655ZM328.655 156.634V165.171H320.118V156.634H328.655ZM328.655 165.171V173.707H320.118V165.171H328.655ZM328.655 139.561V148.098H320.118V139.561H328.655ZM328.655 131.024V139.561H320.118V131.024H328.655ZM328.655 122.488V131.024H320.118V122.488H328.655ZM328.655 113.951V122.488H320.118V113.951H328.655ZM328.655 105.415V113.951H320.118V105.415H328.655ZM328.655 96.8781V105.415H320.118V96.8781H328.655ZM328.655 88.3415V96.8781H320.118V88.3415H328.655ZM328.655 79.8049V88.3415H320.118V79.8049H328.655ZM328.655 71.2683V79.8049H320.118V71.2683H328.655ZM328.655 62.7317V71.2683H320.118V62.7317H328.655ZM320.118 79.8049V88.3415H311.581V79.8049H320.118ZM328.655 54.1951V62.7317H320.118V54.1951H328.655ZM328.655 45.6585V54.1951H320.118V45.6585H328.655ZM328.655 37.122V45.6585H320.118V37.122H328.655ZM328.655 28.5854V37.122H320.118V28.5854H328.655ZM311.581 28.5854V37.122H303.045V28.5854H311.581ZM303.045 28.5854V37.122H294.508V28.5854H303.045ZM303.045 37.122V45.6585H294.508V37.122H303.045ZM311.581 37.122V45.6585H303.045V37.122H311.581ZM311.581 45.6585V54.1951H303.045V45.6585H311.581ZM311.581 54.1951V62.7317H303.045V54.1951H311.581ZM311.581 62.7317V71.2683H303.045V62.7317H311.581ZM311.581 71.2683V79.8049H303.045V71.2683H311.581ZM311.581 79.8049V88.3415H303.045V79.8049H311.581ZM311.581 88.3415V96.8781H303.045V88.3415H311.581ZM303.045 96.8781V105.415H294.508V96.8781H303.045ZM303.045 105.415V113.951H294.508V105.415H303.045ZM303.045 88.3415V96.8781H294.508V88.3415H303.045ZM303.045 79.8049V88.3415H294.508V79.8049H303.045ZM303.045 71.2683V79.8049H294.508V71.2683H303.045ZM303.045 62.7317V71.2683H294.508V62.7317H303.045ZM303.045 54.1951V62.7317H294.508V54.1951H303.045ZM303.045 45.6585V54.1951H294.508V45.6585H303.045ZM311.581 96.8781V105.415H303.045V96.8781H311.581ZM311.581 105.415V113.951H303.045V105.415H311.581ZM311.581 113.951V122.488H303.045V113.951H311.581ZM311.581 122.488V131.024H303.045V122.488H311.581ZM311.581 131.024V139.561H303.045V131.024H311.581ZM311.581 139.561V148.098H303.045V139.561H311.581ZM311.581 148.098V156.634H303.045V148.098H311.581ZM311.581 156.634V165.171H303.045V156.634H311.581ZM311.581 165.171V173.707H303.045V165.171H311.581ZM320.118 156.634V165.171H311.581V156.634H320.118ZM320.118 148.098V156.634H311.581V148.098H320.118ZM337.191 233.463V242H328.655V233.463H337.191ZM345.728 233.463V242H337.191V233.463H345.728ZM345.728 224.927V233.463H337.191V224.927H345.728ZM345.728 216.39V224.927H337.191V216.39H345.728ZM345.728 207.854V216.39H337.191V207.854H345.728ZM345.728 199.317V207.854H337.191V199.317H345.728ZM337.191 199.317V207.854H328.655V199.317H337.191ZM337.191 207.854V216.39H328.655V207.854H337.191ZM337.191 216.39V224.927H328.655V216.39H337.191ZM337.191 224.927V233.463H328.655V224.927H337.191ZM354.264 199.317V207.854H345.728V199.317H354.264ZM362.801 199.317V207.854H354.264V199.317H362.801ZM371.337 199.317V207.854H362.801V199.317H371.337ZM371.337 224.927V233.463H362.801V224.927H371.337ZM362.801 233.463V242H354.264V233.463H362.801ZM354.264 233.463V242H345.728V233.463H354.264ZM371.337 233.463V242H362.801V233.463H371.337ZM362.801 224.927V233.463H354.264V224.927H362.801ZM354.264 224.927V233.463H345.728V224.927H354.264ZM354.264 216.39V224.927H345.728V216.39H354.264ZM362.801 216.39V224.927H354.264V216.39H362.801ZM371.337 216.39V224.927H362.801V216.39H371.337ZM371.337 207.854V216.39H362.801V207.854H371.337ZM362.801 207.854V216.39H354.264V207.854H362.801ZM354.264 207.854V216.39H345.728V207.854H354.264ZM379.874 233.463V242H371.337V233.463H379.874ZM388.411 233.463V242H379.874V233.463H388.411ZM396.947 233.463V242H388.411V233.463H396.947ZM396.947 224.927V233.463H388.411V224.927H396.947ZM379.874 199.317V207.854H371.337V199.317H379.874ZM388.411 199.317V207.854H379.874V199.317H388.411ZM396.947 199.317V207.854H388.411V199.317H396.947ZM396.947 207.854V216.39H388.411V207.854H396.947ZM396.947 216.39V224.927H388.411V216.39H396.947ZM388.411 216.39V224.927H379.874V216.39H388.411ZM388.411 207.854V216.39H379.874V207.854H388.411ZM379.874 207.854V216.39H371.337V207.854H379.874ZM379.874 216.39V224.927H371.337V216.39H379.874ZM379.874 224.927V233.463H371.337V224.927H379.874ZM388.411 224.927V233.463H379.874V224.927H388.411Z" fill="black"/>
<path d="M106.61 438.317V446.854H98.0732V438.317H106.61ZM106.61 429.78V438.317H98.0732V429.78H106.61ZM106.61 421.244V429.78H98.0732V421.244H106.61ZM106.61 412.707V421.244H98.0732V412.707H106.61ZM106.61 404.171V412.707H98.0732V404.171H106.61ZM106.61 395.634V404.171H98.0732V395.634H106.61ZM106.61 387.098V395.634H98.0732V387.098H106.61ZM106.61 378.561V387.098H98.0732V378.561H106.61ZM106.61 370.024V378.561H98.0732V370.024H106.61ZM106.61 361.488V370.024H98.0732V361.488H106.61ZM106.61 352.951V361.488H98.0732V352.951H106.61ZM115.146 352.951V361.488H106.61V352.951H115.146ZM115.146 361.488V370.024H106.61V361.488H115.146ZM115.146 370.024V378.561H106.61V370.024H115.146ZM115.146 378.561V387.098H106.61V378.561H115.146ZM115.146 387.098V395.634H106.61V387.098H115.146ZM115.146 395.634V404.171H106.61V395.634H115.146ZM115.146 404.171V412.707H106.61V404.171H115.146ZM123.683 412.707V421.244H115.146V412.707H123.683ZM123.683 421.244V429.78H115.146V421.244H123.683ZM123.683 429.78V438.317H115.146V429.78H123.683ZM123.683 438.317V446.854H115.146V438.317H123.683ZM123.683 446.854V455.39H115.146V446.854H123.683ZM123.683 455.39V463.927H115.146V455.39H123.683ZM123.683 463.927V472.463H115.146V463.927H123.683ZM140.756 472.463V481H132.22V472.463H140.756ZM140.756 463.927V472.463H132.22V463.927H140.756ZM140.756 455.39V463.927H132.22V455.39H140.756ZM140.756 446.854V455.39H132.22V446.854H140.756ZM140.756 438.317V446.854H132.22V438.317H140.756ZM140.756 429.78V438.317H132.22V429.78H140.756ZM140.756 421.244V429.78H132.22V421.244H140.756ZM140.756 412.707V421.244H132.22V412.707H140.756ZM132.22 412.707V421.244H123.683V412.707H132.22ZM132.22 404.171V412.707H123.683V404.171H132.22ZM132.22 421.244V429.78H123.683V421.244H132.22ZM132.22 429.78V438.317H123.683V429.78H132.22ZM132.22 438.317V446.854H123.683V438.317H132.22ZM132.22 446.854V455.39H123.683V446.854H132.22ZM132.22 455.39V463.927H123.683V455.39H132.22ZM132.22 463.927V472.463H123.683V463.927H132.22ZM115.146 455.39V463.927H106.61V455.39H115.146ZM115.146 446.854V455.39H106.61V446.854H115.146ZM115.146 438.317V446.854H106.61V438.317H115.146ZM115.146 429.78V438.317H106.61V429.78H115.146ZM115.146 421.244V429.78H106.61V421.244H115.146ZM115.146 412.707V421.244H106.61V412.707H115.146ZM106.61 344.415V352.951H98.0732V344.415H106.61ZM132.22 344.415V352.951H123.683V344.415H132.22ZM132.22 352.951V361.488H123.683V352.951H132.22ZM132.22 361.488V370.024H123.683V361.488H132.22ZM132.22 370.024V378.561H123.683V370.024H132.22ZM132.22 378.561V387.098H123.683V378.561H132.22ZM140.756 387.098V395.634H132.22V387.098H140.756ZM140.756 395.634V404.171H132.22V395.634H140.756ZM140.756 404.171V412.707H132.22V404.171H140.756ZM140.756 378.561V387.098H132.22V378.561H140.756ZM140.756 370.024V378.561H132.22V370.024H140.756ZM140.756 361.488V370.024H132.22V361.488H140.756ZM140.756 352.951V361.488H132.22V352.951H140.756ZM140.756 344.415V352.951H132.22V344.415H140.756ZM115.146 344.415V352.951H106.61V344.415H115.146ZM123.683 344.415V352.951H115.146V344.415H123.683ZM123.683 352.951V361.488H115.146V352.951H123.683ZM123.683 361.488V370.024H115.146V361.488H123.683ZM123.683 370.024V378.561H115.146V370.024H123.683ZM123.683 378.561V387.098H115.146V378.561H123.683ZM123.683 387.098V395.634H115.146V387.098H123.683ZM123.683 395.634V404.171H115.146V395.634H123.683ZM123.683 404.171V412.707H115.146V404.171H123.683ZM132.22 395.634V404.171H123.683V395.634H132.22ZM132.22 387.098V395.634H123.683V387.098H132.22ZM209.049 472.463V481H200.512V472.463H209.049ZM209.049 463.927V472.463H200.512V463.927H209.049ZM209.049 455.39V463.927H200.512V455.39H209.049ZM209.049 446.854V455.39H200.512V446.854H209.049ZM209.049 438.317V446.854H200.512V438.317H209.049ZM209.049 429.78V438.317H200.512V429.78H209.049ZM209.049 421.244V429.78H200.512V421.244H209.049ZM209.049 412.707V421.244H200.512V412.707H209.049ZM209.049 404.171V412.707H200.512V404.171H209.049ZM209.049 395.634V404.171H200.512V395.634H209.049ZM209.049 387.098V395.634H200.512V387.098H209.049ZM209.049 378.561V387.098H200.512V378.561H209.049ZM209.049 370.024V378.561H200.512V370.024H209.049ZM209.049 361.488V370.024H200.512V361.488H209.049ZM209.049 352.951V361.488H200.512V352.951H209.049ZM217.585 352.951V361.488H209.049V352.951H217.585ZM217.585 361.488V370.024H209.049V361.488H217.585ZM217.585 370.024V378.561H209.049V370.024H217.585ZM217.585 378.561V387.098H209.049V378.561H217.585ZM217.585 387.098V395.634H209.049V387.098H217.585ZM217.585 395.634V404.171H209.049V395.634H217.585ZM217.585 404.171V412.707H209.049V404.171H217.585ZM226.122 412.707V421.244H217.585V412.707H226.122ZM226.122 421.244V429.78H217.585V421.244H226.122ZM226.122 429.78V438.317H217.585V429.78H226.122ZM226.122 438.317V446.854H217.585V438.317H226.122ZM226.122 446.854V455.39H217.585V446.854H226.122ZM226.122 455.39V463.927H217.585V455.39H226.122ZM226.122 463.927V472.463H217.585V463.927H226.122ZM243.195 438.317V446.854H234.659V438.317H243.195ZM243.195 429.78V438.317H234.659V429.78H243.195ZM243.195 421.244V429.78H234.659V421.244H243.195ZM243.195 412.707V421.244H234.659V412.707H243.195ZM234.659 412.707V421.244H226.122V412.707H234.659ZM234.659 404.171V412.707H226.122V404.171H234.659ZM234.659 421.244V429.78H226.122V421.244H234.659ZM234.659 429.78V438.317H226.122V429.78H234.659ZM234.659 438.317V446.854H226.122V438.317H234.659ZM234.659 446.854V455.39H226.122V446.854H234.659ZM234.659 455.39V463.927H226.122V455.39H234.659ZM217.585 463.927V472.463H209.049V463.927H217.585ZM217.585 455.39V463.927H209.049V455.39H217.585ZM217.585 446.854V455.39H209.049V446.854H217.585ZM217.585 438.317V446.854H209.049V438.317H217.585ZM217.585 429.78V438.317H209.049V429.78H217.585ZM217.585 421.244V429.78H209.049V421.244H217.585ZM217.585 412.707V421.244H209.049V412.707H217.585ZM209.049 344.415V352.951H200.512V344.415H209.049ZM234.659 344.415V352.951H226.122V344.415H234.659ZM234.659 352.951V361.488H226.122V352.951H234.659ZM234.659 361.488V370.024H226.122V361.488H234.659ZM234.659 370.024V378.561H226.122V370.024H234.659ZM234.659 378.561V387.098H226.122V378.561H234.659ZM243.195 387.098V395.634H234.659V387.098H243.195ZM243.195 395.634V404.171H234.659V395.634H243.195ZM243.195 404.171V412.707H234.659V404.171H243.195ZM243.195 378.561V387.098H234.659V378.561H243.195ZM243.195 370.024V378.561H234.659V370.024H243.195ZM243.195 361.488V370.024H234.659V361.488H243.195ZM243.195 352.951V361.488H234.659V352.951H243.195ZM243.195 344.415V352.951H234.659V344.415H243.195ZM217.585 344.415V352.951H209.049V344.415H217.585ZM226.122 344.415V352.951H217.585V344.415H226.122ZM226.122 352.951V361.488H217.585V352.951H226.122ZM226.122 361.488V370.024H217.585V361.488H226.122ZM226.122 370.024V378.561H217.585V370.024H226.122ZM226.122 378.561V387.098H217.585V378.561H226.122ZM226.122 387.098V395.634H217.585V387.098H226.122ZM226.122 395.634V404.171H217.585V395.634H226.122ZM226.122 404.171V412.707H217.585V404.171H226.122ZM234.659 395.634V404.171H226.122V395.634H234.659ZM234.659 387.098V395.634H226.122V387.098H234.659ZM149.293 472.463V481H140.756V472.463H149.293ZM157.829 472.463V481H149.293V472.463H157.829ZM166.366 472.463V481H157.829V472.463H166.366ZM174.902 472.463V481H166.366V472.463H174.902ZM191.976 472.463V481H183.439V472.463H191.976ZM200.512 472.463V481H191.976V472.463H200.512ZM200.512 463.927V472.463H191.976V463.927H200.512ZM191.976 463.927V472.463H183.439V463.927H191.976ZM174.902 463.927V472.463H166.366V463.927H174.902ZM166.366 463.927V472.463H157.829V463.927H166.366ZM157.829 463.927V472.463H149.293V463.927H157.829ZM149.293 463.927V472.463H140.756V463.927H149.293ZM149.293 455.39V463.927H140.756V455.39H149.293ZM157.829 455.39V463.927H149.293V455.39H157.829ZM166.366 455.39V463.927H157.829V455.39H166.366ZM174.902 455.39V463.927H166.366V455.39H174.902ZM191.976 455.39V463.927H183.439V455.39H191.976ZM200.512 455.39V463.927H191.976V455.39H200.512ZM200.512 446.854V455.39H191.976V446.854H200.512ZM191.976 446.854V455.39H183.439V446.854H191.976ZM174.902 446.854V455.39H166.366V446.854H174.902ZM166.366 446.854V455.39H157.829V446.854H166.366ZM157.829 446.854V455.39H149.293V446.854H157.829ZM149.293 446.854V455.39H140.756V446.854H149.293ZM149.293 438.317V446.854H140.756V438.317H149.293ZM200.512 438.317V446.854H191.976V438.317H200.512ZM234.659 310.268V301.732H243.195V310.268H234.659ZM234.659 318.805V310.268H243.195V318.805H234.659ZM234.659 327.341V318.805H243.195V327.341H234.659ZM217.585 327.341V318.805H226.122V327.341H217.585ZM217.585 318.805V310.268H226.122V318.805H217.585ZM217.585 310.268V301.732H226.122V310.268H217.585ZM217.585 301.732V293.195H226.122V301.732H217.585ZM217.585 293.195V284.659H226.122V293.195H217.585ZM217.585 284.659V276.122H226.122V284.659H217.585ZM200.512 276.122V267.585H209.049V276.122H200.512ZM200.512 284.659V276.122H209.049V284.659H200.512ZM200.512 293.195V284.659H209.049V293.195H200.512ZM200.512 301.732V293.195H209.049V301.732H200.512ZM200.512 310.268V301.732H209.049V310.268H200.512ZM200.512 318.805V310.268H209.049V318.805H200.512ZM200.512 327.341V318.805H209.049V327.341H200.512ZM209.049 327.341V318.805H217.585V327.341H209.049ZM209.049 318.805V310.268H217.585V318.805H209.049ZM209.049 310.268V301.732H217.585V310.268H209.049ZM209.049 301.732V293.195H217.585V301.732H209.049ZM209.049 293.195V284.659H217.585V293.195H209.049ZM209.049 284.659V276.122H217.585V284.659H209.049ZM226.122 293.195V284.659H234.659V293.195H226.122ZM226.122 301.732V293.195H234.659V301.732H226.122ZM226.122 310.268V301.732H234.659V310.268H226.122ZM226.122 318.805V310.268H234.659V318.805H226.122ZM226.122 327.341V318.805H234.659V327.341H226.122ZM132.22 276.122V267.585H140.756V276.122H132.22ZM132.22 284.659V276.122H140.756V284.659H132.22ZM132.22 293.195V284.659H140.756V293.195H132.22ZM132.22 301.732V293.195H140.756V301.732H132.22ZM132.22 310.268V301.732H140.756V310.268H132.22ZM132.22 318.805V310.268H140.756V318.805H132.22ZM132.22 327.341V318.805H140.756V327.341H132.22ZM115.146 327.341V318.805H123.683V327.341H115.146ZM115.146 318.805V310.268H123.683V318.805H115.146ZM115.146 310.268V301.732H123.683V310.268H115.146ZM115.146 301.732V293.195H123.683V301.732H115.146ZM115.146 293.195V284.659H123.683V293.195H115.146ZM115.146 284.659V276.122H123.683V284.659H115.146ZM98.0732 310.268V301.732H106.61V310.268H98.0732ZM98.0732 318.805V310.268H106.61V318.805H98.0732ZM98.0732 327.341V318.805H106.61V327.341H98.0732ZM106.61 327.341V318.805H115.146V327.341H106.61ZM106.61 318.805V310.268H115.146V318.805H106.61ZM106.61 310.268V301.732H115.146V310.268H106.61ZM106.61 301.732V293.195H115.146V301.732H106.61ZM106.61 293.195V284.659H115.146V293.195H106.61ZM123.683 284.659V276.122H132.22V284.659H123.683ZM123.683 293.195V284.659H132.22V293.195H123.683ZM123.683 301.732V293.195H132.22V301.732H123.683ZM123.683 310.268V301.732H132.22V310.268H123.683ZM123.683 318.805V310.268H132.22V318.805H123.683ZM123.683 327.341V318.805H132.22V327.341H123.683ZM191.976 276.122V267.585H200.512V276.122H191.976ZM183.439 276.122V267.585H191.976V276.122H183.439ZM166.366 276.122V267.585H174.902V276.122H166.366ZM157.829 276.122V267.585H166.366V276.122H157.829ZM149.293 276.122V267.585H157.829V276.122H149.293ZM140.756 276.122V267.585H149.293V276.122H140.756ZM140.756 284.659V276.122H149.293V284.659H140.756ZM149.293 284.659V276.122H157.829V284.659H149.293ZM157.829 284.659V276.122H166.366V284.659H157.829ZM166.366 284.659V276.122H174.902V284.659H166.366ZM183.439 284.659V276.122H191.976V284.659H183.439ZM191.976 284.659V276.122H200.512V284.659H191.976ZM191.976 293.195V284.659H200.512V293.195H191.976ZM183.439 293.195V284.659H191.976V293.195H183.439ZM166.366 293.195V284.659H174.902V293.195H166.366ZM157.829 293.195V284.659H166.366V293.195H157.829ZM149.293 293.195V284.659H157.829V293.195H149.293ZM140.756 293.195V284.659H149.293V293.195H140.756ZM140.756 301.732V293.195H149.293V301.732H140.756ZM149.293 301.732V293.195H157.829V301.732H149.293ZM157.829 301.732V293.195H166.366V301.732H157.829ZM166.366 301.732V293.195H174.902V301.732H166.366ZM183.439 301.732V293.195H191.976V301.732H183.439ZM191.976 301.732V293.195H200.512V301.732H191.976ZM191.976 310.268V301.732H200.512V310.268H191.976ZM140.756 310.268V301.732H149.293V310.268H140.756ZM106.61 335.878V344.415H98.0732V335.878H106.61ZM115.146 335.878V344.415H106.61V335.878H115.146ZM106.61 327.341V335.878H98.0732V327.341H106.61ZM132.22 327.341V335.878H123.683V327.341H132.22ZM132.22 335.878V344.415H123.683V335.878H132.22ZM140.756 335.878V344.415H132.22V335.878H140.756ZM140.756 327.341V335.878H132.22V327.341H140.756ZM115.146 327.341V335.878H106.61V327.341H115.146ZM123.683 327.341V335.878H115.146V327.341H123.683ZM123.683 335.878V344.415H115.146V335.878H123.683ZM209.049 335.878V344.415H200.512V335.878H209.049ZM217.585 335.878V344.415H209.049V335.878H217.585ZM209.049 327.341V335.878H200.512V327.341H209.049ZM234.659 327.341V335.878H226.122V327.341H234.659ZM234.659 335.878V344.415H226.122V335.878H234.659ZM243.195 335.878V344.415H234.659V335.878H243.195ZM243.195 327.341V335.878H234.659V327.341H243.195ZM217.585 327.341V335.878H209.049V327.341H217.585ZM226.122 327.341V335.878H217.585V327.341H226.122ZM226.122 335.878V344.415H217.585V335.878H226.122ZM157.829 438.317V446.854H149.293V438.317H157.829ZM166.366 438.317V446.854H157.829V438.317H166.366ZM174.902 438.317V446.854H166.366V438.317H174.902ZM191.976 438.317V446.854H183.439V438.317H191.976ZM200.512 429.78V438.317H191.976V429.78H200.512ZM149.293 429.78V438.317H140.756V429.78H149.293ZM157.829 301.732V310.268H149.293V301.732H157.829ZM166.366 301.732V310.268H157.829V301.732H166.366ZM174.902 301.732V310.268H166.366V301.732H174.902ZM191.976 301.732V310.268H183.439V301.732H191.976ZM200.512 310.268V318.805H191.976V310.268H200.512ZM149.293 310.268V318.805H140.756V310.268H149.293ZM183.439 267.585V276.122H174.902V267.585H183.439ZM183.439 276.122V284.659H174.902V276.122H183.439ZM183.439 284.659V293.195H174.902V284.659H183.439ZM183.439 293.195V301.732H174.902V293.195H183.439ZM183.439 301.732V310.268H174.902V301.732H183.439ZM183.439 438.317V446.854H174.902V438.317H183.439ZM183.439 446.854V455.39H174.902V446.854H183.439ZM183.439 455.39V463.927H174.902V455.39H183.439ZM183.439 463.927V472.463H174.902V463.927H183.439ZM183.439 472.463V481H174.902V472.463H183.439ZM285.711 472.463V481H277.175V472.463H285.711ZM285.711 463.927V472.463H277.175V463.927H285.711ZM285.711 455.39V463.927H277.175V455.39H285.711ZM285.711 446.854V455.39H277.175V446.854H285.711ZM285.711 438.317V446.854H277.175V438.317H285.711ZM285.711 429.78V438.317H277.175V429.78H285.711ZM285.711 421.244V429.78H277.175V421.244H285.711ZM285.711 412.707V421.244H277.175V412.707H285.711ZM285.711 404.171V412.707H277.175V404.171H285.711ZM285.711 395.634V404.171H277.175V395.634H285.711ZM285.711 387.098V395.634H277.175V387.098H285.711ZM285.711 378.561V387.098H277.175V378.561H285.711ZM285.711 370.024V378.561H277.175V370.024H285.711ZM285.711 361.488V370.024H277.175V361.488H285.711ZM285.711 352.951V361.488H277.175V352.951H285.711ZM294.248 352.951V361.488H285.711V352.951H294.248ZM294.248 361.488V370.024H285.711V361.488H294.248ZM294.248 370.024V378.561H285.711V370.024H294.248ZM294.248 378.561V387.098H285.711V378.561H294.248ZM294.248 387.098V395.634H285.711V387.098H294.248ZM294.248 395.634V404.171H285.711V395.634H294.248ZM294.248 404.171V412.707H285.711V404.171H294.248ZM302.784 412.707V421.244H294.248V412.707H302.784ZM302.784 421.244V429.78H294.248V421.244H302.784ZM302.784 429.78V438.317H294.248V429.78H302.784ZM302.784 438.317V446.854H294.248V438.317H302.784ZM302.784 446.854V455.39H294.248V446.854H302.784ZM302.784 455.39V463.927H294.248V455.39H302.784ZM302.784 463.927V472.463H294.248V463.927H302.784ZM302.784 472.463V481H294.248V472.463H302.784ZM311.321 472.463V481H302.784V472.463H311.321ZM319.858 472.463V481H311.321V472.463H319.858ZM319.858 438.317V446.854H311.321V438.317H319.858ZM319.858 429.78V438.317H311.321V429.78H319.858ZM319.858 421.244V429.78H311.321V421.244H319.858ZM319.858 412.707V421.244H311.321V412.707H319.858ZM311.321 412.707V421.244H302.784V412.707H311.321ZM311.321 404.171V412.707H302.784V404.171H311.321ZM311.321 421.244V429.78H302.784V421.244H311.321ZM311.321 429.78V438.317H302.784V429.78H311.321ZM311.321 438.317V446.854H302.784V438.317H311.321ZM311.321 446.854V455.39H302.784V446.854H311.321ZM311.321 455.39V463.927H302.784V455.39H311.321ZM311.321 463.927V472.463H302.784V463.927H311.321ZM294.248 472.463V481H285.711V472.463H294.248ZM294.248 463.927V472.463H285.711V463.927H294.248ZM294.248 455.39V463.927H285.711V455.39H294.248ZM294.248 446.854V455.39H285.711V446.854H294.248ZM294.248 438.317V446.854H285.711V438.317H294.248ZM294.248 429.78V438.317H285.711V429.78H294.248ZM294.248 421.244V429.78H285.711V421.244H294.248ZM294.248 412.707V421.244H285.711V412.707H294.248ZM285.711 267.585V276.122H277.175V267.585H285.711ZM285.711 276.122V284.659H277.175V276.122H285.711ZM285.711 284.659V293.195H277.175V284.659H285.711ZM285.711 293.195V301.732H277.175V293.195H285.711ZM285.711 301.732V310.268H277.175V301.732H285.711ZM285.711 310.268V318.805H277.175V310.268H285.711ZM285.711 318.805V327.341H277.175V318.805H285.711ZM285.711 327.341V335.878H277.175V327.341H285.711ZM285.711 335.878V344.415H277.175V335.878H285.711ZM285.711 344.415V352.951H277.175V344.415H285.711ZM311.321 267.585V276.122H302.784V267.585H311.321ZM311.321 276.122V284.659H302.784V276.122H311.321ZM311.321 284.659V293.195H302.784V284.659H311.321ZM311.321 293.195V301.732H302.784V293.195H311.321ZM311.321 301.732V310.268H302.784V301.732H311.321ZM311.321 310.268V318.805H302.784V310.268H311.321ZM311.321 327.341V335.878H302.784V327.341H311.321ZM311.321 335.878V344.415H302.784V335.878H311.321ZM311.321 344.415V352.951H302.784V344.415H311.321ZM311.321 352.951V361.488H302.784V352.951H311.321ZM311.321 361.488V370.024H302.784V361.488H311.321ZM311.321 370.024V378.561H302.784V370.024H311.321ZM311.321 378.561V387.098H302.784V378.561H311.321ZM319.858 387.098V395.634H311.321V387.098H319.858ZM319.858 395.634V404.171H311.321V395.634H319.858ZM319.858 404.171V412.707H311.321V404.171H319.858ZM319.858 378.561V387.098H311.321V378.561H319.858ZM319.858 370.024V378.561H311.321V370.024H319.858ZM319.858 361.488V370.024H311.321V361.488H319.858ZM319.858 352.951V361.488H311.321V352.951H319.858ZM319.858 344.415V352.951H311.321V344.415H319.858ZM319.858 335.878V344.415H311.321V335.878H319.858ZM319.858 327.341V335.878H311.321V327.341H319.858ZM319.858 318.805V327.341H311.321V318.805H319.858ZM319.858 310.268V318.805H311.321V310.268H319.858ZM319.858 301.732V310.268H311.321V301.732H319.858ZM311.321 318.805V327.341H302.784V318.805H311.321ZM319.858 293.195V301.732H311.321V293.195H319.858ZM319.858 284.659V293.195H311.321V284.659H319.858ZM319.858 276.122V284.659H311.321V276.122H319.858ZM319.858 267.585V276.122H311.321V267.585H319.858ZM302.784 267.585V276.122H294.248V267.585H302.784ZM294.248 267.585V276.122H285.711V267.585H294.248ZM294.248 276.122V284.659H285.711V276.122H294.248ZM302.784 276.122V284.659H294.248V276.122H302.784ZM302.784 284.659V293.195H294.248V284.659H302.784ZM302.784 293.195V301.732H294.248V293.195H302.784ZM302.784 301.732V310.268H294.248V301.732H302.784ZM302.784 310.268V318.805H294.248V310.268H302.784ZM302.784 318.805V327.341H294.248V318.805H302.784ZM302.784 327.341V335.878H294.248V327.341H302.784ZM294.248 335.878V344.415H285.711V335.878H294.248ZM294.248 344.415V352.951H285.711V344.415H294.248ZM294.248 327.341V335.878H285.711V327.341H294.248ZM294.248 318.805V327.341H285.711V318.805H294.248ZM294.248 310.268V318.805H285.711V310.268H294.248ZM294.248 301.732V310.268H285.711V301.732H294.248ZM294.248 293.195V301.732H285.711V293.195H294.248ZM294.248 284.659V293.195H285.711V284.659H294.248ZM302.784 335.878V344.415H294.248V335.878H302.784ZM302.784 344.415V352.951H294.248V344.415H302.784ZM302.784 352.951V361.488H294.248V352.951H302.784ZM302.784 361.488V370.024H294.248V361.488H302.784ZM302.784 370.024V378.561H294.248V370.024H302.784ZM302.784 378.561V387.098H294.248V378.561H302.784ZM302.784 387.098V395.634H294.248V387.098H302.784ZM302.784 395.634V404.171H294.248V395.634H302.784ZM302.784 404.171V412.707H294.248V404.171H302.784ZM311.321 395.634V404.171H302.784V395.634H311.321ZM311.321 387.098V395.634H302.784V387.098H311.321ZM328.394 387.098V395.634H319.858V387.098H328.394ZM336.931 387.098V395.634H328.394V387.098H336.931ZM336.931 395.634V404.171H328.394V395.634H336.931ZM328.394 395.634V404.171H319.858V395.634H328.394ZM328.394 370.024V378.561H319.858V370.024H328.394ZM336.931 370.024V378.561H328.394V370.024H336.931ZM328.394 404.171V412.707H319.858V404.171H328.394ZM336.931 404.171V412.707H328.394V404.171H336.931ZM336.931 378.561V387.098H328.394V378.561H336.931ZM328.394 378.561V387.098H319.858V378.561H328.394ZM328.394 267.585V276.122H319.858V267.585H328.394ZM336.931 267.585V276.122H328.394V267.585H336.931ZM336.931 276.122V284.659H328.394V276.122H336.931ZM328.394 276.122V284.659H319.858V276.122H328.394ZM328.394 284.659V293.195H319.858V284.659H328.394ZM336.931 284.659V293.195H328.394V284.659H336.931ZM336.931 293.195V301.732H328.394V293.195H336.931ZM328.394 293.195V301.732H319.858V293.195H328.394ZM328.394 301.732V310.268H319.858V301.732H328.394ZM336.931 301.732V310.268H328.394V301.732H336.931ZM345.467 370.024V378.561H336.931V370.024H345.467ZM354.004 370.024V378.561H345.467V370.024H354.004ZM362.541 370.024V378.561H354.004V370.024H362.541ZM371.077 361.488V370.024H362.541V361.488H371.077ZM379.614 352.951V361.488H371.077V352.951H379.614ZM379.614 344.415V352.951H371.077V344.415H379.614ZM379.614 318.805V327.341H371.077V318.805H379.614ZM371.077 310.268V318.805H362.541V310.268H371.077ZM362.541 301.732V310.268H354.004V301.732H362.541ZM354.004 301.732V310.268H345.467V301.732H354.004ZM345.467 301.732V310.268H336.931V301.732H345.467ZM345.467 267.585V276.122H336.931V267.585H345.467ZM354.004 267.585V276.122H345.467V267.585H354.004ZM362.541 267.585V276.122H354.004V267.585H362.541ZM371.077 267.585V276.122H362.541V267.585H371.077ZM371.077 276.122V284.659H362.541V276.122H371.077ZM371.077 284.659V293.195H362.541V284.659H371.077ZM371.077 293.195V301.732H362.541V293.195H371.077ZM362.541 293.195V301.732H354.004V293.195H362.541ZM362.541 284.659V293.195H354.004V284.659H362.541ZM354.004 284.659V293.195H345.467V284.659H354.004ZM345.467 284.659V293.195H336.931V284.659H345.467ZM345.467 276.122V284.659H336.931V276.122H345.467ZM354.004 276.122V284.659H345.467V276.122H354.004ZM362.541 276.122V284.659H354.004V276.122H362.541ZM345.467 293.195V301.732H336.931V293.195H345.467ZM354.004 293.195V301.732H345.467V293.195H354.004ZM371.077 301.732V310.268H362.541V301.732H371.077ZM379.614 310.268V318.805H371.077V310.268H379.614ZM379.614 301.732V310.268H371.077V301.732H379.614ZM379.614 293.195V301.732H371.077V293.195H379.614ZM379.614 284.659V293.195H371.077V284.659H379.614ZM379.614 276.122V284.659H371.077V276.122H379.614ZM379.614 267.585V276.122H371.077V267.585H379.614ZM379.614 361.488V370.024H371.077V361.488H379.614ZM379.614 370.024V378.561H371.077V370.024H379.614ZM379.614 378.561V387.098H371.077V378.561H379.614ZM379.614 387.098V395.634H371.077V387.098H379.614ZM371.077 387.098V395.634H362.541V387.098H371.077ZM362.541 387.098V395.634H354.004V387.098H362.541ZM354.004 387.098V395.634H345.467V387.098H354.004ZM345.467 387.098V395.634H336.931V387.098H345.467ZM345.467 378.561V387.098H336.931V378.561H345.467ZM354.004 378.561V387.098H345.467V378.561H354.004ZM362.541 378.561V387.098H354.004V378.561H362.541ZM371.077 378.561V387.098H362.541V378.561H371.077ZM371.077 370.024V378.561H362.541V370.024H371.077ZM345.467 395.634V404.171H336.931V395.634H345.467ZM354.004 395.634V404.171H345.467V395.634H354.004ZM362.541 395.634V404.171H354.004V395.634H362.541ZM371.077 395.634V404.171H362.541V395.634H371.077ZM379.614 395.634V404.171H371.077V395.634H379.614ZM379.614 404.171V412.707H371.077V404.171H379.614ZM371.077 404.171V412.707H362.541V404.171H371.077ZM362.541 404.171V412.707H354.004V404.171H362.541ZM354.004 404.171V412.707H345.467V404.171H354.004ZM345.467 404.171V412.707H336.931V404.171H345.467ZM388.15 276.122V284.659H379.614V276.122H388.15ZM396.687 276.122V284.659H388.15V276.122H396.687ZM396.687 284.659V293.195H388.15V284.659H396.687ZM405.224 284.659V293.195H396.687V284.659H405.224ZM405.224 293.195V301.732H396.687V293.195H405.224ZM405.224 301.732V310.268H396.687V301.732H405.224ZM413.76 301.732V310.268H405.224V301.732H413.76ZM413.76 310.268V318.805H405.224V310.268H413.76ZM413.76 318.805V327.341H405.224V318.805H413.76ZM413.76 344.415V352.951H405.224V344.415H413.76ZM413.76 352.951V361.488H405.224V352.951H413.76ZM413.76 361.488V370.024H405.224V361.488H413.76ZM413.76 370.024V378.561H405.224V370.024H413.76ZM405.224 378.561V387.098H396.687V378.561H405.224ZM396.687 387.098V395.634H388.15V387.098H396.687ZM388.15 395.634V404.171H379.614V395.634H388.15ZM396.687 395.634V404.171H388.15V395.634H396.687ZM388.15 404.171V412.707H379.614V404.171H388.15ZM388.15 284.659V293.195H379.614V284.659H388.15ZM388.15 293.195V301.732H379.614V293.195H388.15ZM388.15 301.732V310.268H379.614V301.732H388.15ZM388.15 310.268V318.805H379.614V310.268H388.15ZM388.15 318.805V327.341H379.614V318.805H388.15ZM388.15 344.415V352.951H379.614V344.415H388.15ZM388.15 352.951V361.488H379.614V352.951H388.15ZM388.15 361.488V370.024H379.614V361.488H388.15ZM388.15 370.024V378.561H379.614V370.024H388.15ZM388.15 378.561V387.098H379.614V378.561H388.15ZM388.15 387.098V395.634H379.614V387.098H388.15ZM396.687 378.561V387.098H388.15V378.561H396.687ZM396.687 370.024V378.561H388.15V370.024H396.687ZM396.687 361.488V370.024H388.15V361.488H396.687ZM396.687 352.951V361.488H388.15V352.951H396.687ZM396.687 344.415V352.951H388.15V344.415H396.687ZM396.687 318.805V327.341H388.15V318.805H396.687ZM396.687 310.268V318.805H388.15V310.268H396.687ZM396.687 301.732V310.268H388.15V301.732H396.687ZM396.687 293.195V301.732H388.15V293.195H396.687ZM405.224 310.268V318.805H396.687V310.268H405.224ZM405.224 318.805V327.341H396.687V318.805H405.224ZM405.224 344.415V352.951H396.687V344.415H405.224ZM405.224 352.951V361.488H396.687V352.951H405.224ZM405.224 361.488V370.024H396.687V361.488H405.224ZM405.224 370.024V378.561H396.687V370.024H405.224ZM319.858 455.39V463.927H311.321V455.39H319.858ZM319.858 463.927V472.463H311.321V463.927H319.858ZM319.858 446.854V455.39H311.321V446.854H319.858ZM379.614 327.341V335.878H371.077V327.341H379.614ZM388.15 327.341V335.878H379.614V327.341H388.15ZM396.687 327.341V335.878H388.15V327.341H396.687ZM405.224 327.341V335.878H396.687V327.341H405.224ZM413.76 327.341V335.878H405.224V327.341H413.76ZM413.76 335.878V344.415H405.224V335.878H413.76ZM405.224 335.878V344.415H396.687V335.878H405.224ZM396.687 335.878V344.415H388.15V335.878H396.687ZM388.15 335.878V344.415H379.614V335.878H388.15ZM379.614 335.878V344.415H371.077V335.878H379.614Z" fill="black"/>
</g>
<defs>
<clipPath id="clip0_1_2">
<rect width="512" height="512" fill="white"/>
</clipPath>
</defs>
</svg>
